<svg width="690" height="435" viewBox="0 0 690 435" fill="none" xmlns="http://www.w3.org/2000/svg">
<path d="M219.37 120.053C226.519 112.315 232.323 102.978 234.089 92.5489C235.856 82.1194 232.996 70.6805 225.258 63.5312C217.52 56.3819 204.651 54.6997 196.24 61.092C187.072 68.0731 185.558 81.4465 178.241 90.3621C172.269 97.5955 163.185 101.128 154.942 105.418C146.615 109.707 138.205 115.763 136.102 124.847C134.672 130.987 136.522 137.716 140.896 142.258C150.4 152.014 169.998 146.884 181.521 143.519C195.904 139.146 209.193 131.071 219.37 120.053Z" fill="#FAB17E"/>
<path d="M575.489 434.254C639.244 386.9 681.467 315.828 688.701 236.765C692.149 198.495 687.355 158.375 667.505 125.488C647.655 92.6017 610.815 68.5464 572.461 70.9856C550.425 72.3313 528.64 82.088 506.856 78.1349C484.651 74.1817 467.661 57.0234 450.335 42.6407C425.775 22.2021 396.925 5.38026 365.216 1.00657C333.507 -3.36712 298.685 6.47368 278.499 31.286C251.079 64.9297 255.032 117.75 223.996 148.114C186.315 185.038 119.869 167.964 75.9636 197.15C44.1703 218.261 31.4698 259.475 31.5539 297.66C31.638 344.678 48.0393 397.498 77.3094 434.338H575.489V434.254Z" fill="#FAB17E"/>
<path d="M318.752 119.624L318.097 118.546L286.103 137.967L286.758 139.046L318.752 119.624Z" fill="white"/>
<path d="M349.44 94.1574L348.786 93.0788L280.044 134.803L280.699 135.881L349.44 94.1574Z" fill="white"/>
<path d="M187.968 104.697L187.314 103.619L155.32 123.041L155.974 124.119L187.968 104.697Z" fill="white"/>
<path d="M218.655 79.1976L218 78.1191L149.267 119.843L149.922 120.922L218.655 79.1976Z" fill="white"/>
<path d="M172.248 217.974L171.593 216.896L139.603 236.329L140.258 237.407L172.248 217.974Z" fill="white"/>
<path d="M202.923 192.464L202.268 191.386L133.542 233.134L134.197 234.212L202.923 192.464Z" fill="white"/>
<path d="M564.679 107.827L564.024 106.749L532.041 126.189L532.696 127.267L564.679 107.827Z" fill="white"/>
<path d="M595.359 82.316L594.703 81.2379L525.994 123.002L526.649 124.08L595.359 82.316Z" fill="white"/>
<path d="M254.276 232.391H244.519L244.603 222.971H235.099L235.183 213.215L244.687 213.299V203.71L254.444 203.794L254.36 213.215H263.864L263.78 222.971L254.276 222.887V232.391ZM245.781 231.13H253.014V221.71H255.79L262.518 221.794L262.602 214.56H253.098V211.785L253.182 205.056L245.949 204.972V214.476H243.173L236.444 214.392L236.36 221.625H245.865V224.401L245.781 231.13Z" fill="white"/>
<path d="M518.106 298.855L517.45 297.777L485.471 317.228L486.126 318.306L518.106 298.855Z" fill="white"/>
<path d="M548.845 273.41L548.189 272.332L479.488 314.121L480.144 315.199L548.845 273.41Z" fill="white"/>
<path d="M3.46134 240.214C0.0969679 195.383 20.115 137.096 72.8516 136.927C17.3394 152.403 7.83503 232.56 30.7128 289.081C44.2544 322.389 68.3938 347.537 102.795 346.36C40.6377 365.2 5.14353 292.193 3.46134 240.214Z" fill="#EE8062"/>
<path d="M76.216 136.507C38.7032 139.535 13.5545 189.075 19.9468 247.111C26.3391 305.146 62.0015 349.724 99.4301 346.696C136.943 343.668 162.092 294.128 155.699 236.092C149.307 178.057 113.729 133.479 76.216 136.507Z" fill="#7884A6"/>
<path d="M76.216 136.507C38.7032 139.535 13.5545 189.075 19.9468 247.111C26.3391 305.146 62.0015 349.724 99.4301 346.696C136.943 343.668 162.092 294.128 155.699 236.092C149.307 178.057 113.729 133.479 76.216 136.507Z" fill="#D7765B"/>
<path d="M95.8134 338.622C96.8227 338.622 97.832 338.622 98.7572 338.537C109.523 337.696 119.616 331.893 127.943 321.884C143.924 302.539 151.241 270.829 147.541 237.102C144.681 211.448 135.765 187.729 122.476 170.235C109.86 153.749 94.8041 144.665 79.9167 144.665C78.9074 144.665 77.8981 144.665 76.9729 144.749C66.2069 145.591 56.1138 151.394 47.7869 161.403C31.8062 180.748 24.4886 212.458 28.1895 246.185C31.0492 271.839 39.9648 295.558 53.2541 313.052C65.8705 329.538 80.926 338.622 95.8134 338.622Z" fill="white"/>
<path d="M99.0938 216.411C98.7574 216.411 98.3369 216.242 98.0845 215.99L90.5988 209.093C90.01 208.504 89.9259 207.495 90.5147 206.906C91.1034 206.318 92.1128 206.233 92.7015 206.822L100.187 213.719C100.776 214.308 100.86 215.317 100.271 215.906C99.8508 216.242 99.4303 216.411 99.0938 216.411Z" fill="#BDDFFD"/>
<path d="M122.476 238.027C122.14 238.027 121.719 237.859 121.467 237.606L105.15 222.551C104.561 221.962 104.477 220.953 105.065 220.364C105.654 219.775 106.664 219.691 107.252 220.28L123.57 235.335C124.158 235.924 124.242 236.933 123.654 237.522C123.317 237.859 122.897 238.027 122.476 238.027Z" fill="#BDDFFD"/>
<path d="M77.7299 230.793C77.3934 230.793 76.9729 230.625 76.7206 230.373C69.4871 223.981 63.5154 218.598 57.4595 212.794C56.8707 212.205 56.7866 211.196 57.3754 210.607C57.9642 210.018 58.9735 209.934 59.5622 210.523C65.534 216.242 71.5058 221.625 78.7392 228.018C79.4121 228.607 79.4121 229.532 78.8233 230.205C78.6551 230.625 78.1504 230.793 77.7299 230.793Z" fill="#BDDFFD"/>
<path d="M103.552 254.68C103.131 254.68 102.795 254.512 102.458 254.26C96.0659 247.868 89.5054 241.98 83.9542 236.933C83.2813 236.345 83.2813 235.419 83.8701 234.747C84.4588 234.074 85.384 234.074 86.0569 234.662C91.6081 239.709 98.2528 245.681 104.645 252.073C105.234 252.662 105.234 253.671 104.645 254.26C104.309 254.512 103.888 254.68 103.552 254.68Z" fill="#BDDFFD"/>
<path d="M118.607 268.727C118.271 268.727 117.85 268.558 117.598 268.306L109.187 260.568C108.598 259.979 108.514 258.97 109.103 258.381C109.691 257.793 110.701 257.708 111.29 258.297L119.7 266.035C120.289 266.624 120.373 267.633 119.785 268.222C119.448 268.559 119.028 268.727 118.607 268.727Z" fill="#BDDFFD"/>
<path d="M74.7861 257.708C74.4497 257.708 74.0291 257.54 73.7768 257.288L66.2911 250.391C65.7023 249.802 65.6182 248.793 66.2069 248.204C66.7957 247.615 67.805 247.531 68.3938 248.12L75.8795 255.017C76.4683 255.606 76.5524 256.615 75.9636 257.204C75.6272 257.54 75.2066 257.708 74.7861 257.708Z" fill="#BDDFFD"/>
<path d="M98.1686 279.325C97.8322 279.325 97.4116 279.156 97.1593 278.904L80.8421 263.848C80.2533 263.26 80.1692 262.25 80.758 261.662C81.3467 261.073 82.356 260.989 82.9448 261.577L99.262 276.633C99.8508 277.222 99.9349 278.231 99.3461 278.82C99.0097 279.156 98.5892 279.325 98.1686 279.325Z" fill="#BDDFFD"/>
<path d="M168.232 262.503C166.549 291.773 157.129 318.772 141.821 338.706C128.111 356.453 110.617 367.219 92.0285 369.574V417.769H111.458C120.121 417.769 127.102 425.17 127.102 434.254H41.3105C41.3105 425.17 48.2916 417.769 56.9548 417.769H76.3841V369.574C57.7118 367.219 40.3012 356.453 26.5914 338.706C11.1152 318.772 1.69498 291.689 0.0127899 262.503C-0.0713195 261.662 0.265118 260.82 0.853884 260.232C1.44265 259.643 2.28374 259.222 3.12484 259.222H17.4234C19.1056 259.222 20.5355 260.568 20.5355 262.334C20.5355 264.017 19.1897 265.446 17.4234 265.446H6.4051C8.50784 292.193 17.3393 316.753 31.3015 334.921C44.8431 352.416 62.0855 362.593 80.4214 363.77C81.5989 363.854 82.8605 363.854 84.1222 363.854C85.3838 363.854 86.5613 363.854 87.823 363.77C106.075 362.593 123.401 352.416 136.943 334.921C150.989 316.753 159.737 292.193 161.839 265.446H156.372C156.54 263.428 156.624 261.325 156.709 259.222H165.204C166.045 259.222 166.886 259.559 167.475 260.232C167.979 260.82 168.232 261.577 168.232 262.503Z" fill="#D7765B"/>
<path d="M95.8976 347.285C59.5623 347.285 25.8344 303.464 19.6103 247.195C15.6572 211.196 23.6476 177.048 41.1424 155.936C50.9831 144.077 63.0949 137.18 76.3001 136.086C113.981 133.058 149.812 177.889 156.288 236.008C160.241 272.007 152.251 306.155 134.756 327.267C124.915 339.126 112.804 346.023 99.5984 347.117C98.3367 347.201 97.0751 347.285 95.8976 347.285ZM76.216 136.507V136.927C63.2631 138.021 51.3196 144.75 41.647 156.441C24.4046 177.384 16.4142 211.28 20.3673 247.111C26.5073 302.959 59.9828 346.444 95.8134 346.444C96.991 346.444 98.1685 346.36 99.4302 346.276C112.383 345.182 124.327 338.453 133.999 326.762C151.326 305.819 159.232 271.923 155.279 236.092C148.886 178.393 113.392 133.815 76.216 136.843V136.507Z" fill="#47393D"/>
<path d="M79.5804 335.51C72.1788 331.809 65.3659 326.846 59.3942 320.959L59.9829 320.37C65.8706 326.258 72.5993 331.136 79.9169 334.837L79.5804 335.51Z" fill="#47393D"/>
<path d="M49.2168 307.081C42.3199 296.651 37.1892 286.306 34.0772 276.212C22.1336 237.438 24.2364 198.411 39.7125 171.917L40.4695 172.337C25.0775 198.664 22.9747 237.354 34.9183 275.96C38.0303 285.969 43.0769 296.315 49.8897 306.66L49.2168 307.081Z" fill="#47393D"/>
<path d="M124.747 172.842C111.205 154.002 88.4118 137.6 64.8612 147.946L64.5248 147.189C88.496 136.675 111.71 153.329 125.42 172.337L124.747 172.842Z" fill="#47393D"/>
<path d="M147.12 237.102C145.859 227.261 144.176 218.429 141.821 210.018L142.662 209.766C145.017 218.177 146.7 227.008 147.961 236.933L147.12 237.102Z" fill="#47393D"/>
<path d="M177.063 279.913L166.718 368.985L162.344 406.414H112.215L97.4116 279.913H177.063Z" fill="#FFC761"/>
<path d="M177.652 274.446L176.979 279.913H97.4115L96.7386 274.446C96.3181 270.745 99.1778 267.549 102.879 267.549H171.428C175.213 267.549 178.156 270.829 177.652 274.446Z" fill="white"/>
<path d="M162.344 406.414V428.03C162.344 431.478 159.568 434.254 156.12 434.254H118.439C114.99 434.254 112.215 431.478 112.215 428.03V406.414H123.233V410.619C123.233 413.984 125.925 416.675 129.289 416.675H145.354C148.718 416.675 151.41 413.984 151.41 410.619V406.414H162.344Z" fill="#72ADE6"/>
<path d="M151.326 406.75V412.722C151.326 415.077 149.391 417.012 147.036 417.012H127.523C125.168 417.012 123.233 415.077 123.233 412.722V406.75H151.326Z" fill="#6896E8"/>
<path d="M173.278 312.211L166.633 368.985H126.009C122.56 368.985 119.616 366.378 119.196 362.929L114.149 319.781C113.645 315.744 116.841 312.211 120.962 312.211H173.278Z" fill="white"/>
<path d="M156.12 434.59H118.439C114.822 434.59 111.794 431.647 111.794 427.946V406.414H112.635V428.03C112.635 431.226 115.243 433.833 118.439 433.833H156.12C159.316 433.833 161.923 431.226 161.923 428.03V406.414H162.764V428.03C162.764 431.647 159.737 434.59 156.12 434.59Z" fill="#47393D"/>
<path d="M151.746 406.414H150.905V412.386H151.746V406.414Z" fill="#47393D"/>
<path d="M147.036 417.096H127.354C124.831 417.096 122.728 414.993 122.728 412.47V406.414H123.569V412.386C123.569 414.488 125.252 416.17 127.354 416.17H147.036V417.096Z" fill="#47393D"/>
<path d="M166.718 369.406H126.093C122.392 369.406 119.364 366.63 118.859 363.013L113.813 319.865C113.561 317.847 114.233 315.744 115.579 314.23C116.925 312.716 118.944 311.791 120.962 311.791H173.362V312.632H120.962C119.112 312.632 117.43 313.389 116.168 314.735C114.99 316.08 114.402 317.931 114.57 319.697L119.616 362.845C119.953 366.041 122.728 368.48 126.009 368.48H166.634V369.406H166.718Z" fill="#47393D"/>
<path d="M96.9909 279.997L96.318 274.53C96.0656 272.68 96.6544 270.745 97.916 269.315C99.1777 267.886 100.944 267.129 102.879 267.129H171.428V267.97H102.879C101.196 267.97 99.6823 268.643 98.5889 269.904C97.4955 271.166 96.9909 272.764 97.1591 274.446L97.8319 279.913L96.9909 279.997Z" fill="#47393D"/>
<path d="M177.464 279.969L176.629 279.872L164.39 385.307L165.225 385.404L177.464 279.969Z" fill="#47393D"/>
<path d="M162.68 406.834H111.794L107.42 369.069L96.9908 279.493H177.063V280.334H97.916L112.551 405.993H161.923L163.101 396.405L163.942 396.489L162.68 406.834Z" fill="#47393D"/>
<path d="M163.858 276.044H152.335V276.885H163.858V276.044Z" fill="#47393D"/>
<path d="M143.756 276.044H103.72V276.885H143.756V276.044Z" fill="#47393D"/>
<path d="M160.578 322.389C155.615 325.921 153.092 324.491 147.373 327.183C134.84 333.07 141.064 350.06 141.064 350.06C141.064 350.06 154.017 348.294 159.232 340.64C164.11 333.575 160.578 322.389 160.578 322.389Z" fill="#99D3FF"/>
<path d="M129.794 319.192C133.747 323.818 136.522 322.977 141.485 326.93C152.251 335.594 141.148 349.892 141.148 349.892C141.148 349.892 130.046 345.939 126.766 337.36C123.738 329.285 129.794 319.192 129.794 319.192Z" fill="#99D3FF"/>
<path d="M134.924 346.948C130.551 344.005 127.607 340.724 126.261 337.192C123.149 329.117 128.952 319.108 129.205 318.688L129.541 318.183L129.962 318.604C132.149 321.127 133.915 321.968 136.018 322.893C137.616 323.65 139.382 324.491 141.653 326.173C142.662 326.93 143.503 327.856 144.26 328.781L143.588 329.285C142.915 328.36 142.074 327.519 141.148 326.762C139.046 325.08 137.363 324.323 135.681 323.566C133.747 322.641 131.896 321.8 129.709 319.529C128.532 321.632 124.495 330.042 127.102 336.771C128.364 340.136 131.223 343.248 135.429 346.191L134.924 346.948Z" fill="#47393D"/>
<path d="M139.298 338.453C138.289 333.912 133.747 330.799 133.747 330.799L134.251 330.127C134.42 330.295 139.13 333.407 140.139 338.285L139.298 338.453Z" fill="#47393D"/>
<path d="M140.812 350.481L140.728 350.145C140.644 349.976 134.504 332.65 147.204 326.678C149.728 325.501 151.662 325.08 153.429 324.744C155.699 324.323 157.634 323.902 160.325 321.968L160.83 321.632L160.998 322.22C160.998 322.304 161.839 324.912 162.092 328.36L161.251 328.444C160.998 326.005 160.578 323.987 160.325 323.061C157.718 324.828 155.699 325.248 153.597 325.669C151.83 326.005 149.98 326.426 147.541 327.519C136.438 332.734 140.56 347.201 141.317 349.556C143.42 349.219 154.27 347.033 158.812 340.388C159.737 338.958 160.41 337.36 160.83 335.425L161.671 335.594C161.251 337.612 160.494 339.379 159.484 340.893C154.27 348.547 141.569 350.397 141.064 350.481H140.812Z" fill="#47393D"/>
<path d="M149.307 336.267L148.718 335.678C150.148 334.248 151.746 333.07 153.512 332.145L153.933 332.902C152.251 333.743 150.653 334.921 149.307 336.267Z" fill="#47393D"/>
<path d="M141.485 350.145L140.644 349.976C140.728 349.724 141.99 344.173 145.943 338.874L146.616 339.379C142.831 344.509 141.485 350.061 141.485 350.145Z" fill="#47393D"/>
<path d="M157.634 352.668H127.439V356.116H157.634V352.668Z" fill="#FFC761"/>
<path d="M157.634 358.808H127.439V362.256H157.634V358.808Z" fill="#FFC761"/>
<path d="M478.259 157.029C479.016 155.431 499.202 118.255 483.81 90.4148C474.979 74.35 456.643 64.9297 429.559 62.4064L429.223 65.6867C455.213 68.1259 472.623 77.0414 480.95 92.0129C495.501 118.339 475.483 155.179 475.315 155.516L478.259 157.029Z" fill="#47393D"/>
<path d="M478.595 156.272C478.595 156.272 497.015 124.227 470.268 84.0225C453.362 58.7056 391.206 49.79 358.824 70.9856C336.198 85.7888 322.909 111.61 308.947 155.095C278.667 249.718 134.588 241.728 154.185 376.807C157.718 401.283 163.185 421.89 170.25 434.17H339.562L478.595 156.272Z" fill="#47393D"/>
<path d="M485.492 304.305C463.708 356.032 418.373 385.386 418.373 385.386C418.373 385.386 329.89 358.64 294.396 295.305L383.888 273.1L415.766 284.876C415.85 284.876 464.129 297.913 485.492 304.305Z" fill="white"/>
<path d="M554.126 434.17H183.876L194.81 374.705C201.034 340.893 223.912 314.062 253.855 305.314L294.48 295.221C329.89 358.64 418.373 385.386 418.373 385.386C418.373 385.386 463.624 356.032 485.492 304.305C489.95 305.651 493.23 306.744 494.66 307.333C521.155 318.351 539.995 344.257 544.789 374.789L554.126 434.17Z" fill="#EA5A53"/>
<path d="M457.316 296.146L433.597 289.418L425.27 222.635L360.337 183.524L345.03 282.773L323.834 287.904C369.001 329.454 431.662 337.276 457.316 296.146Z" fill="#FCA88B"/>
<path d="M431.158 274.698C393.308 273.521 379.43 231.887 379.43 231.887L427.373 242.232L431.158 274.698Z" fill="#47393D"/>
<path d="M434.177 289.682L430.919 263.136L429.667 263.289L432.924 289.836L434.177 289.682Z" fill="#47393D"/>
<path d="M385.066 106.396C413.663 90.5831 462.615 89.0691 473.885 128.432C484.315 164.683 485.072 265.446 438.055 263.932C343.684 260.736 354.45 123.386 385.066 106.396Z" fill="#FCA88B"/>
<path d="M370.851 160.899C433.765 159.889 444.195 119.012 444.195 119.012C470.268 105.639 478.595 156.272 478.595 156.272C478.595 156.272 493.314 121.199 473.465 97.2277C464.97 86.9664 447.643 77.5461 421.821 74.6023C382.458 70.0604 357.31 80.4058 344.273 110.853C323.834 158.543 350.413 182.262 350.413 182.262L370.851 160.899Z" fill="#47393D"/>
<path d="M384.561 163.758C405.841 163.758 422.158 158.543 433.008 148.282C447.475 134.656 446.886 117.162 446.886 116.405L443.606 116.573C443.606 116.741 444.111 133.395 430.737 145.927C418.037 157.871 397.346 162.497 369.337 159.637L369.001 162.917C374.468 163.506 379.683 163.758 384.561 163.758Z" fill="#47393D"/>
<path d="M386.159 63.0793C386.159 63.0793 394.318 30.1084 367.907 35.0709C367.907 35.0709 348.898 20.6882 334.516 36.5848C318.367 54.5001 341.245 78.219 357.057 81.8357L386.159 63.0793Z" fill="#47393D"/>
<path d="M387.589 63.8363C387.673 63.6681 399.028 43.2295 385.318 32.7158C376.655 26.0712 368.664 31.2018 365.552 34.8185L368.076 36.9213C368.328 36.5848 375.057 28.9309 383.299 35.3232C394.822 44.1547 384.813 62.07 384.729 62.2382L387.589 63.8363Z" fill="#47393D"/>
<path d="M351.59 84.359L352.515 81.2469C352.347 81.1628 337.712 76.6209 331.993 65.5185C329.301 60.2196 329.049 54.1637 331.236 47.6032L328.124 46.5097C325.6 53.9114 325.937 60.8083 329.049 66.9483C335.441 79.3124 351.001 84.1066 351.59 84.359Z" fill="#47393D"/>
<path d="M362.188 198.832C372.221 198.832 380.355 190.698 380.355 180.664C380.355 170.631 372.221 162.497 362.188 162.497C352.154 162.497 344.02 170.631 344.02 180.664C344.02 190.698 352.154 198.832 362.188 198.832Z" fill="#FCA88B"/>
<path d="M362.188 199.505C352.936 199.505 344.861 192.692 343.6 183.272C342.17 173.01 349.403 163.506 359.665 162.076C365.804 161.235 371.944 163.422 376.15 168.048L375.225 168.889C371.356 164.599 365.552 162.581 359.833 163.338C350.244 164.683 343.516 173.515 344.861 183.103C345.534 187.729 347.889 191.851 351.674 194.71C355.375 197.57 360.001 198.748 364.711 198.075L364.879 199.336C363.954 199.421 363.029 199.505 362.188 199.505Z" fill="#47393D"/>
<path d="M353.44 183.356H352.179C352.179 179.234 353.861 175.365 356.636 172.674C359.16 170.319 362.356 169.057 365.636 169.225L365.552 170.487C362.608 170.319 359.664 171.496 357.478 173.599C354.954 176.038 353.524 179.571 353.44 183.356Z" fill="#47393D"/>
<path d="M361.515 185.458C358.319 182.01 356.805 177.048 357.562 172.169L358.823 172.337C358.066 176.795 359.412 181.337 362.44 184.533L361.515 185.458Z" fill="#47393D"/>
<path d="M285.228 433.833C284.975 428.955 285.228 421.638 287.667 414.657C292.545 400.863 293.555 385.218 293.555 385.05L294.816 385.134C294.816 385.302 293.807 401.115 288.844 415.077C286.405 421.89 286.237 428.955 286.405 433.749L285.228 433.833Z" fill="#47393D"/>
<path d="M285.816 422.058C284.387 408.264 279.845 397.751 279.845 397.582L281.022 397.078C281.106 397.162 285.648 407.844 287.162 421.89L285.816 422.058Z" fill="#47393D"/>
<path d="M534.276 345.098C517.958 310.697 480.025 303.548 479.604 303.548L479.857 302.286C480.277 302.37 518.799 309.604 535.453 344.593L534.276 345.098Z" fill="#47393D"/>
<path d="M533.098 174.861H523.341L523.425 165.44H513.921L514.005 155.684L523.51 155.768V146.263L533.266 146.348L533.182 155.768H542.687L542.602 165.525L533.098 165.44V174.861ZM524.603 173.599H531.836V164.179H534.612L541.341 164.263L541.425 157.029H531.921V154.254L532.005 147.525L524.771 147.441V156.945H521.996L515.267 156.861L515.183 164.095H524.687V166.87L524.603 173.599Z" fill="white"/>
<path d="M582.05 373.191H572.293L572.377 363.77H562.873L562.957 353.93L572.461 354.014V344.509L582.218 344.593L582.134 354.014H591.638L591.554 363.77L582.05 363.686V373.191ZM573.555 371.929H580.788V362.509H583.564L590.292 362.593L590.377 355.359H580.872V352.584L580.956 345.855L573.723 345.771V355.275H570.947L564.219 355.191L564.134 362.425H573.639V365.2L573.555 371.929Z" fill="white"/>
<path d="M596.096 148.114C596.096 148.114 593.321 144.581 595.171 142.31C595.171 142.31 590.966 131.292 600.891 131.46C600.891 131.46 603.077 121.956 618.385 131.292C618.385 131.292 631.759 129.694 625.282 150.469C625.871 155.179 626.039 160.73 620.74 160.562L596.096 148.114Z" fill="#47393D"/>
<path d="M623.516 173.263L620.824 153.833L606.946 161.824L605.685 173.599L599.04 175.954C603.582 181.926 620.152 183.356 627.805 174.44L623.516 173.263Z" fill="#FCA88B"/>
<path d="M605.937 170.823C614.096 168.132 615.778 161.571 615.778 161.571L606.61 164.347L605.937 170.823Z" fill="#47393D"/>
<path d="M619.142 150.469C619.142 150.469 621.077 141.049 615.778 137.684C610.479 134.32 599.629 133.563 597.106 140.88C595.676 145.002 596.096 156.357 596.769 160.899C597.442 165.02 600.386 168.216 604.423 168.384C614.011 168.889 618.469 156.945 618.469 156.945L619.142 150.469Z" fill="#FCA88B"/>
<path d="M601.273 408.451L588 407.791L587.09 426.105L600.363 426.765L601.273 408.451Z" fill="#FCA88B"/>
<path d="M662.963 425.254L649.842 427.357L645.805 409.274L658.926 407.171L662.963 425.254Z" fill="#FCA88B"/>
<path d="M604.507 413.9C604.507 413.9 592.984 417.264 574.732 413.9C574.732 413.9 587.181 282.521 590.377 257.036H627.133L604.507 413.9Z" fill="#4F77BF"/>
<path d="M606.778 257.12H649.926L654.973 345.939C665.655 381.349 669.355 413.984 669.355 413.984C654.384 417.348 642.525 413.984 642.525 413.984C642.525 413.984 625.282 363.266 621.161 345.939C615.946 323.987 606.778 257.12 606.778 257.12Z" fill="#4F77BF"/>
<path d="M544.958 233.233C544.033 233.737 541.425 234.999 540.416 234.999C539.491 234.999 534.276 234.074 534.192 235.167C534.108 236.345 537.808 236.176 537.556 237.102C537.388 237.69 530.239 238.027 530.659 239.373C530.911 240.214 535.285 239.457 535.285 239.961C535.285 240.466 529.734 240.382 530.07 241.644C530.407 243.073 536.21 240.971 536.379 241.644C536.463 241.98 529.734 242.905 530.07 243.999C530.491 245.428 535.958 243.242 536.21 243.914C536.294 244.251 534.276 244.671 533.098 245.008C532.425 245.26 532.51 245.765 533.014 245.849C537.893 246.69 545.21 242.064 545.967 241.98C546.64 241.896 547.313 241.812 547.986 241.728L544.958 233.233Z" fill="#FCA88B"/>
<path d="M609.806 216.747L602.573 228.27C602.573 228.27 594.414 240.214 587.265 243.242C575.069 248.372 548.322 242.653 548.322 242.653L544.705 232.139L572.546 221.289C572.546 221.289 578.854 200.262 581.966 191.683C585.498 182.094 591.554 176.711 603.582 173.851L609.806 216.747Z" fill="white"/>
<path d="M626.46 173.178C626.46 173.178 604.928 183.692 603.666 173.599L601.479 179.403L593.321 265.278C603.834 269.4 619.142 268.306 635.459 266.035L636.973 183.019L632.6 174.692L626.46 173.178Z" fill="#BDDFFD"/>
<path d="M571.452 327.183C580.536 329.958 589.367 331.893 597.947 333.07C600.049 316.333 605.516 264.942 604.002 203.542C603.498 183.608 603.414 173.767 603.414 173.767L589.956 198.916C585.414 245.513 580.957 292.361 571.452 327.183Z" fill="white"/>
<path d="M621.581 334.837C640.674 335.089 656.823 332.313 667.926 329.706L646.814 193.281L626.376 172.59C626.376 172.59 620.993 183.44 619.983 204.804C617.376 255.942 620.656 318.015 621.581 334.837Z" fill="white"/>
<path d="M620.993 264.942L620.572 266.203C619.479 269.147 616.282 270.661 613.339 269.568L500.464 226.504L503.492 218.093L617.628 257.624C620.488 258.802 622.002 261.998 620.993 264.942Z" fill="#774438"/>
<g opacity="0.35">
<path d="M463.624 248.372C488.476 248.372 508.623 228.226 508.623 203.374C508.623 178.522 488.476 158.375 463.624 158.375C438.772 158.375 418.625 178.522 418.625 203.374C418.625 228.226 438.772 248.372 463.624 248.372Z" fill="white"/>
</g>
<g opacity="0.35">
<path d="M463.624 248.372C488.476 248.372 508.623 228.226 508.623 203.374C508.623 178.522 488.476 158.375 463.624 158.375C438.772 158.375 418.625 178.522 418.625 203.374C418.625 228.226 438.772 248.372 463.624 248.372Z" fill="white"/>
</g>
<path d="M419.887 221.541C429.98 245.681 457.652 257.12 481.791 247.027C505.931 236.933 517.37 209.261 507.277 185.122C497.184 160.983 469.512 149.544 445.372 159.637C421.317 169.646 409.878 197.402 419.887 221.541ZM425.438 219.27C416.691 198.159 426.616 173.935 447.727 165.188C468.839 156.441 493.062 166.366 501.81 187.477C510.557 208.589 500.632 232.812 479.521 241.559C458.493 250.307 434.27 240.298 425.438 219.27Z" fill="#3D6EC1"/>
<g opacity="0.35">
<path d="M430.569 217.084C437.55 233.905 456.138 242.232 471.951 235.588C473.296 234.999 474.558 234.41 475.736 233.653C460.932 237.438 444.783 229.195 438.391 213.803C431.999 198.411 437.466 181.169 450.587 173.263C449.241 173.599 447.895 174.02 446.55 174.608C430.653 181.337 423.504 200.262 430.569 217.084Z" fill="white"/>
</g>
<path d="M566.096 248.431L566.329 247.8L555.208 243.682L554.974 244.314L566.096 248.431Z" fill="#F5F8FF"/>
<path d="M610.405 264.871L610.639 264.24L571.989 249.931L571.755 250.562L610.405 264.871Z" fill="#F5F8FF"/>
<path d="M599.376 248.625C599.376 247.783 600.049 247.111 600.89 247.111C601.732 247.111 602.404 247.783 602.404 248.625C602.404 249.466 601.732 250.139 600.89 250.139C600.049 250.139 599.376 249.466 599.376 248.625ZM600.133 248.625C600.133 249.045 600.47 249.297 600.806 249.297C601.227 249.297 601.479 248.961 601.479 248.625C601.479 248.204 601.143 247.952 600.806 247.952C600.47 247.952 600.133 248.204 600.133 248.625Z" fill="#3683CF"/>
<path d="M606.61 248.12C605.685 248.54 602.993 249.718 601.984 249.634C601.059 249.55 595.928 248.456 595.76 249.55C595.592 250.727 599.292 250.727 599.04 251.653C598.872 252.241 591.638 252.325 592.059 253.671C592.311 254.596 596.685 253.923 596.601 254.428C596.517 254.933 590.966 254.596 591.302 255.942C591.638 257.372 597.526 255.522 597.61 256.194C597.694 256.531 590.881 257.12 591.218 258.213C591.554 259.643 597.106 257.708 597.358 258.381C597.442 258.718 595.423 259.054 594.162 259.391C593.489 259.559 593.573 260.148 593.993 260.232C598.788 261.241 606.273 256.951 607.115 256.867C607.787 256.783 608.46 256.699 609.133 256.699L606.61 248.12Z" fill="#FCA88B"/>
<path d="M634.366 232.56L604.087 245.344L608.292 259.391C608.292 259.391 636.637 258.886 649.169 254.68C656.066 252.325 661.113 246.438 662.374 239.288C664.225 228.691 665.739 197.234 656.823 186.72C650.936 179.823 637.478 174.104 626.376 172.674L636.805 203.878L634.366 232.56Z" fill="white"/>
<path d="M618.806 157.702C618.806 157.702 623.768 158.375 623.936 154.002C624.105 150.048 619.31 149.291 618.133 151.226L618.806 157.702Z" fill="#FCA88B"/>
<path d="M620.151 150.217C620.151 150.217 618.133 150.974 618.301 152.992C618.301 152.992 615.862 153.076 615.862 150.553C615.946 148.03 615.862 143.993 615.862 143.993C615.862 143.993 615.357 140.712 610.731 140.292C610.731 140.292 608.797 145.254 604.255 143.32C604.255 143.32 601.479 147.777 596.18 145.002C596.18 145.002 595.003 134.825 604.002 133.563C613.086 132.301 618.89 134.993 619.395 138.189C620.152 142.142 620.151 150.217 620.151 150.217Z" fill="#47393D"/>
<path d="M628.31 434.17H664.309C665.066 434.17 665.571 433.497 665.486 432.824C665.486 432.824 665.486 432.488 665.402 431.983C665.402 431.731 665.402 431.478 665.318 431.226C665.066 428.45 664.477 422.899 663.3 421.049C662.963 420.46 661.617 420.039 660.692 422.058C659.431 424.75 655.309 426.18 648.665 419.619C648.328 419.283 647.739 419.198 647.319 419.451C645.973 420.292 643.029 422.142 639.581 423.572C634.03 425.759 630.917 426.768 629.319 428.871C628.899 429.46 628.647 430.301 628.562 431.226C628.562 431.478 628.478 431.731 628.478 431.983C628.226 433.161 628.31 434.17 628.31 434.17Z" fill="#433A60"/>
<path d="M628.31 431.983H665.318C665.318 431.731 665.318 431.478 665.234 431.226H628.394C628.394 431.478 628.31 431.731 628.31 431.983Z" fill="white"/>
<path d="M650.851 424.834L651.272 424.161C651.272 424.161 647.487 421.806 646.394 420.04L645.721 420.46C646.898 422.31 650.683 424.666 650.851 424.834Z" fill="white"/>
<path d="M567.079 434.17H603.077C603.834 434.17 604.339 433.497 604.255 432.824C604.255 432.824 604.255 432.488 604.171 431.983C604.171 431.731 604.171 431.478 604.087 431.226C603.834 428.45 603.246 422.899 602.068 421.049C601.732 420.46 600.386 420.039 599.461 422.058C598.199 424.75 594.078 426.18 587.433 419.619C587.097 419.283 586.508 419.198 586.087 419.451C584.742 420.292 581.798 422.142 578.349 423.572C572.798 425.759 569.686 426.768 568.088 428.871C567.667 429.46 567.415 430.301 567.331 431.226C567.331 431.478 567.247 431.731 567.247 431.983C567.079 433.161 567.079 434.17 567.079 434.17Z" fill="#433A60"/>
<path d="M567.163 431.983H604.171C604.171 431.731 604.171 431.478 604.087 431.226H567.247C567.163 431.478 567.163 431.731 567.163 431.983Z" fill="white"/>
<path d="M589.704 424.834L590.125 424.161C590.125 424.161 586.34 421.806 585.246 420.04L584.573 420.46C585.751 422.31 589.536 424.666 589.704 424.834Z" fill="white"/>
<path d="M599.965 220.7C599.965 219.859 600.638 219.186 601.479 219.27C602.32 219.27 602.993 219.943 602.909 220.784C602.909 221.625 602.236 222.298 601.395 222.214C600.554 222.214 599.881 221.541 599.965 220.7ZM600.722 220.7C600.722 221.121 601.059 221.373 601.395 221.373C601.816 221.373 602.068 221.037 602.068 220.7C602.068 220.28 601.732 220.027 601.395 220.027C601.059 220.027 600.722 220.364 600.722 220.7Z" fill="#3683CF"/>
<path d="M598.451 273.016C598.451 272.175 599.124 271.502 599.965 271.586C600.806 271.586 601.479 272.259 601.395 273.1C601.395 273.942 600.722 274.614 599.881 274.53C599.124 274.53 598.451 273.857 598.451 273.016ZM599.292 273.1C599.292 273.521 599.629 273.773 599.965 273.773C600.386 273.773 600.638 273.437 600.638 273.1C600.638 272.68 600.302 272.428 599.965 272.428C599.629 272.343 599.292 272.68 599.292 273.1Z" fill="#3683CF"/>
<path d="M625.535 150.637C625.787 150.217 631.002 140.46 627.637 134.825C626.123 132.217 623.011 130.956 618.553 130.956C618.049 130.283 615.61 127.423 611.572 126.918C608.124 126.498 604.423 127.928 600.722 131.208L601.143 131.713C604.76 128.601 608.208 127.171 611.488 127.591C615.694 128.096 618.133 131.46 618.133 131.46L618.217 131.628H618.385C622.759 131.628 625.619 132.806 627.049 135.161C630.245 140.544 624.946 150.217 624.946 150.301L625.535 150.637Z" fill="#47393D"/>
<path d="M663.468 410.535C663.299 409.526 660.103 385.218 656.15 373.022L656.991 372.77C661.028 385.05 664.225 409.442 664.393 410.451L663.468 410.535Z" fill="white"/>
<path d="M627.805 183.944L629.235 186.972L629.067 187.141C628.983 187.225 622.759 192.776 620.067 205.224C620.067 205.224 619.983 205.224 619.899 205.14C619.899 204.972 619.899 204.888 619.899 204.719C620.74 188.066 624.189 177.804 625.618 174.104C625.618 174.104 630.665 178.225 631.001 183.608V184.029L627.805 183.944Z" fill="#72ADE6"/>
<path d="M603.918 204.551C602.993 196.309 599.461 186.636 599.461 186.636L600.386 184.786L597.694 184.449L597.19 184.365L597.274 183.944C597.947 181.505 600.302 178.477 601.9 176.627C602.657 175.702 603.161 175.113 603.245 175.113L603.498 175.87C603.582 179.739 603.666 188.907 604.087 203.542C604.087 203.878 604.087 204.131 604.087 204.467L603.918 204.551Z" fill="#72ADE6"/>
<path d="M636.889 199.673H636.048C636.132 197.57 636.385 195.636 636.721 193.869C639.581 180.16 649.422 181.842 649.506 181.842L649.337 182.683C649.253 182.683 640.17 181.169 637.562 194.038C637.226 195.72 636.973 197.654 636.889 199.673Z" fill="#47393D"/>
<path d="M590.713 199.084L589.872 198.916C589.872 198.916 590.209 196.645 590.293 193.701C590.377 189.916 589.872 184.87 587.349 182.178L587.938 181.589C590.713 184.449 591.218 189.748 591.134 193.701C591.134 196.729 590.713 199.084 590.713 199.084Z" fill="#47393D"/>
<path d="M453.867 188.655C456.004 188.655 457.736 186.922 457.736 184.786C457.736 182.649 456.004 180.917 453.867 180.917C451.73 180.917 449.998 182.649 449.998 184.786C449.998 186.922 451.73 188.655 453.867 188.655Z" fill="#EA5849"/>
<path d="M470.689 219.355C472.826 219.355 474.558 217.622 474.558 215.485C474.558 213.349 472.826 211.616 470.689 211.616C468.552 211.616 466.82 213.349 466.82 215.485C466.82 217.622 468.552 219.355 470.689 219.355Z" fill="#EA5849"/>
<path d="M441.924 211.701C444.061 211.701 445.793 209.968 445.793 207.832C445.793 205.695 444.061 203.962 441.924 203.962C439.787 203.962 438.055 205.695 438.055 207.832C438.055 209.968 439.787 211.701 441.924 211.701Z" fill="#EA5849"/>
<path d="M481.287 202.869C482.355 202.869 483.221 202.003 483.221 200.935C483.221 199.866 482.355 199 481.287 199C480.219 199 479.352 199.866 479.352 200.935C479.352 202.003 480.219 202.869 481.287 202.869Z" fill="#EA5849"/>
<path d="M463.035 189.832C464.103 189.832 464.97 188.966 464.97 187.898C464.97 186.829 464.103 185.963 463.035 185.963C461.967 185.963 461.101 186.829 461.101 187.898C461.101 188.966 461.967 189.832 463.035 189.832Z" fill="#EA5849"/>
<path d="M464.97 204.719C466.038 204.719 466.904 203.853 466.904 202.785C466.904 201.717 466.038 200.85 464.97 200.85C463.901 200.85 463.035 201.717 463.035 202.785C463.035 203.853 463.901 204.719 464.97 204.719Z" fill="#EA5849"/>
<path d="M443.017 188.655C444.086 188.655 444.952 187.788 444.952 186.72C444.952 185.652 444.086 184.786 443.017 184.786C441.949 184.786 441.083 185.652 441.083 186.72C441.083 187.788 441.949 188.655 443.017 188.655Z" fill="#EA5849"/>
<path d="M446.886 221.878C447.954 221.878 448.821 221.012 448.821 219.943C448.821 218.875 447.954 218.009 446.886 218.009C445.818 218.009 444.952 218.875 444.952 219.943C444.952 221.012 445.818 221.878 446.886 221.878Z" fill="#EA5849"/>
<path d="M473.381 226.504C474.449 226.504 475.315 225.638 475.315 224.569C475.315 223.501 474.449 222.635 473.381 222.635C472.312 222.635 471.446 223.501 471.446 224.569C471.446 225.638 472.312 226.504 473.381 226.504Z" fill="#EA5849"/>
<path d="M478.848 193.701C479.916 193.701 480.782 192.835 480.782 191.767C480.782 190.698 479.916 189.832 478.848 189.832C477.779 189.832 476.913 190.698 476.913 191.767C476.913 192.835 477.779 193.701 478.848 193.701Z" fill="#EA5849"/>
<path d="M457.652 211.616C458.72 211.616 459.587 210.75 459.587 209.682C459.587 208.614 458.72 207.747 457.652 207.747C456.584 207.747 455.718 208.614 455.718 209.682C455.718 210.75 456.584 211.616 457.652 211.616Z" fill="#EA5849"/>
<path d="M451.26 200.935C452.328 200.935 453.194 200.068 453.194 199C453.194 197.932 452.328 197.066 451.26 197.066C450.191 197.066 449.325 197.932 449.325 199C449.325 200.068 450.191 200.935 451.26 200.935Z" fill="#EA5849"/>
<path d="M608.04 259.811L603.582 245.176L633.945 232.307L634.955 220.7L635.796 220.784L634.787 232.812L604.675 245.597L608.713 258.97C611.825 258.886 637.562 258.213 649.169 254.26C651.524 253.419 653.711 252.241 655.562 250.643L656.15 251.316C654.216 252.998 651.945 254.26 649.506 255.101C637.057 259.306 608.797 259.811 608.544 259.811H608.04Z" fill="#47393D"/>
<path d="M626.46 325.332C624.693 325.332 622.927 325.332 621.077 325.248V324.407C639.413 324.912 654.72 322.977 666.664 318.688L666.916 319.445C656.15 323.398 642.525 325.332 626.46 325.332Z" fill="#47393D"/>
<path d="M599.292 323.734C584.321 322.052 573.555 319.613 573.387 319.529L573.555 318.688C573.639 318.688 584.405 321.127 599.376 322.809L599.292 323.734Z" fill="#47393D"/>
<path d="M618.054 328.802L611.416 287.103L610.586 287.235L617.223 328.935L618.054 328.802Z" fill="white"/>
<path d="M589.077 211.681L588.241 211.594L584.895 243.718L585.731 243.805L589.077 211.681Z" fill="#47393D"/>
<path d="M510.22 371.508V425.338C510.22 430.217 506.267 434.17 501.389 434.17H463.792C458.914 434.17 454.96 430.217 454.96 425.338V371.508C454.96 366.041 457.736 360.995 462.362 358.135C466.147 355.78 468.502 351.574 468.502 347.033V331.556H496.763V347.033C496.763 351.49 499.034 355.696 502.903 358.135C507.445 361.079 510.22 366.125 510.22 371.508Z" fill="#774438"/>
<path d="M510.22 371.256V413.984H473.212C470.268 413.984 467.913 411.629 467.913 408.685V376.639C467.913 373.695 470.268 371.34 473.212 371.34H510.22V371.256Z" fill="white"/>
<path d="M510.22 370.836H473.212V371.677H510.22V370.836Z" fill="#47393D"/>
<path d="M468.334 376.555H467.493V388.246H468.334V376.555Z" fill="#47393D"/>
<path d="M510.22 414.404H473.212C470.016 414.404 467.493 411.797 467.493 408.685V393.882H468.334V408.685C468.334 411.376 470.521 413.563 473.212 413.563H510.22V414.404Z" fill="#47393D"/>
<path d="M490.202 326.258H474.979V309.267C474.979 305.062 478.427 301.613 482.632 301.613C486.838 301.613 490.286 305.062 490.286 309.267V326.258H490.202Z" fill="#E54C34"/>
<path d="M490.623 326.678H474.558V309.267C474.558 304.81 478.175 301.193 482.632 301.193C487.09 301.193 490.707 304.81 490.707 309.267V326.678H490.623ZM475.399 325.837H489.782V309.267C489.782 305.314 486.586 302.034 482.548 302.034C478.511 302.034 475.315 305.23 475.315 309.267V325.837H475.399Z" fill="#47393D"/>
<path d="M501.389 434.338H463.792C458.661 434.338 454.54 430.217 454.54 425.086V371.256H455.381V425.086C455.381 429.712 459.166 433.497 463.792 433.497H501.389C506.015 433.497 509.8 429.712 509.8 425.086V371.256C509.8 365.957 507.108 361.079 502.65 358.219C498.697 355.696 496.342 351.49 496.342 346.78V331.725H468.923V346.78C468.923 351.49 466.568 355.696 462.614 358.219L462.194 357.462C465.895 355.107 468.082 351.154 468.082 346.78V330.884H497.183V346.78C497.183 351.154 499.37 355.191 503.071 357.462C507.781 360.49 510.641 365.621 510.641 371.172V425.002C510.641 430.217 506.519 434.338 501.389 434.338Z" fill="#47393D"/>
<path d="M496.174 345.687H469.091C465.979 345.687 463.371 343.164 463.371 339.967V329.538C463.371 326.426 465.895 323.818 469.091 323.818H496.174C499.286 323.818 501.893 326.342 501.893 329.538V339.967C501.893 343.079 499.286 345.687 496.174 345.687Z" fill="white"/>
<path d="M496.174 346.107H469.091C465.727 346.107 462.951 343.332 462.951 339.967V329.538C462.951 326.173 465.727 323.398 469.091 323.398H496.174C499.539 323.398 502.314 326.173 502.314 329.538V339.967C502.314 343.332 499.539 346.107 496.174 346.107ZM469.091 324.239C466.147 324.239 463.792 326.594 463.792 329.538V339.967C463.792 342.911 466.147 345.266 469.091 345.266H496.174C499.118 345.266 501.473 342.911 501.473 339.967V329.538C501.473 326.594 499.118 324.239 496.174 324.239H469.091Z" fill="#47393D"/>
<path d="M507.277 380.424H481.371V384.714H507.277V380.424Z" fill="#C7C8C9"/>
<path d="M507.276 387.742H474.979V392.031H507.276V387.742Z" fill="#C7C8C9"/>
<path d="M559.256 425.843C559.256 430.385 555.639 434.002 551.098 434.002H505.426C500.884 434.002 497.268 430.385 497.268 425.843L497.352 423.656L498.529 401.367L498.782 396.825H557.742L557.995 401.367L559.172 423.656L559.256 425.843Z" fill="white"/>
<path d="M550.34 384.882H506.015C501.977 384.882 498.697 388.162 498.697 392.199V396.741H557.658V392.199C557.742 388.162 554.462 384.882 550.34 384.882Z" fill="#FFC761"/>
<path d="M551.097 434.338H505.426C500.716 434.338 496.847 430.469 496.847 425.759L498.361 396.321H522.08V397.162H499.118L497.604 425.843C497.604 430.048 501.052 433.581 505.342 433.581H551.013C555.303 433.581 558.751 430.133 558.751 425.843L557.237 396.825L558.079 396.741L559.593 425.759C559.677 430.553 555.808 434.338 551.097 434.338Z" fill="#47393D"/>
<path d="M499.202 396.741H498.361V392.199C498.361 387.91 501.809 384.461 506.099 384.461H529.481V385.302H506.099C502.314 385.302 499.202 388.414 499.202 392.199V396.741Z" fill="#47393D"/>
<path d="M525.276 423.32L525.36 418.357V416.843H518.8V411.04H523.846H525.36V404.563H531.164L531.08 409.61V411.04H537.64V416.927L532.594 416.843H531.08V423.32H525.276Z" fill="#96B9ED"/>
<path d="M531.5 423.74H524.855L524.939 417.264H518.379V410.535L524.855 410.619V404.059L531.5 404.143L531.416 410.619H537.976V417.264H531.5V423.74ZM525.696 422.899H530.659V416.423H537.135V411.46H530.575V409.61L530.659 404.984L525.696 404.9V411.46H523.846L519.22 411.376V416.423H525.781V418.273L525.696 422.899Z" fill="#47393D"/>
<path d="M540.836 392.62H498.529V393.461H540.836V392.62Z" fill="#47393D"/>
<path d="M552.275 392.62H545.63V393.461H552.275V392.62Z" fill="#47393D"/>
<path d="M404.747 324.323C388.514 324.323 373.627 319.613 362.02 314.23C339.226 303.716 323.582 288.492 323.413 288.324L324.339 287.399C324.507 287.567 339.983 302.623 362.608 313.052C383.383 322.641 414.672 330.211 445.54 311.623L446.213 312.716C432.083 321.211 417.952 324.323 404.747 324.323Z" fill="#47393D"/>
<path d="M611.572 178.73C609.722 178.73 608.208 178.393 606.778 177.804C603.75 176.459 602.993 174.02 602.993 173.935L603.834 173.683C603.834 173.767 604.507 175.87 607.199 177.047C609.974 178.309 615.441 178.73 625.534 173.851L625.871 174.608C620.236 177.3 615.441 178.73 611.572 178.73Z" fill="#47393D"/>
</svg>