<?xml version="1.0" encoding="utf-8"?>
<!-- Generator: Adobe Illustrator 19.0.0, SVG Export Plug-In . SVG Version: 6.00 Build 0)  -->
<svg version="1.1" id="Layer_1" xmlns="http://www.w3.org/2000/svg" xmlns:xlink="http://www.w3.org/1999/xlink" x="0px" y="0px"
	 viewBox="0 0 312.7 142.1" style="enable-background:new 0 0 312.7 142.1;" xml:space="preserve">
<style type="text/css">
	.st0{fill:#DBEAE7;}
	.st1{fill:#FAB17E;}
	.st2{fill:#5D7ABC;}
	.st3{fill:#758FC9;}
	.st4{fill:#A0A059;}
	.st5{fill:#3B3149;}
	.st6{fill:#FFCE1E;}
	.st7{opacity:0.3;}
	.st8{fill:#FFFFFF;}
	.st9{fill:#EE8062;}
	.st10{font-family:'Montserrat-SemiBold';}
	.st11{font-size:150px;}
	.st12{font-size:30px;}
</style>
<g id="XMLID_226_">
	<g id="XMLID_602_">
		<circle id="XMLID_3_" class="st0" cx="199.2" cy="41.6" r="16.4"/>
		<g id="XMLID_656_">
			<path id="XMLID_204_" class="st1" d="M217.2,59.3c0,0-4.2,0.1-5.3-1.8c-1.2-1.9,0.8-3.5,0.8-3.5l6.2,3.4L217.2,59.3z"/>
		</g>
		<g id="XMLID_647_">
			<g id="XMLID_654_">
				<polygon id="XMLID_203_" class="st2" points="242.2,67.7 241,69.7 210.9,50.7 212.1,48.7 				"/>
			</g>
			<g id="XMLID_652_">
				<path id="XMLID_202_" class="st3" d="M242.5,68.5l-0.6,1.1c-0.3,0.4-0.8,0.6-1.2,0.3L224.9,60c-0.4-0.3-0.5-0.8-0.3-1.2l0.6-1.1
					c0.3-0.4,0.8-0.6,1.2-0.3l15.7,9.9C242.6,67.5,242.7,68.1,242.5,68.5z"/>
			</g>
			<g id="XMLID_648_">
				<path id="XMLID_649_" class="st2" d="M185.1,33c-4.7,7.7-2.4,17.9,5.2,22.7c7.6,4.8,17.5,2.4,22.2-5.3
					c4.7-7.7,2.4-17.9-5.2-22.7S189.8,25.3,185.1,33z M211.3,49.6c-4.3,7.1-13.4,9.2-20.3,4.9c-6.9-4.4-9.1-13.6-4.8-20.7
					c4.3-7.1,13.4-9.2,20.3-4.9C213.5,33.3,215.6,42.5,211.3,49.6z"/>
			</g>
		</g>
		<g id="XMLID_645_">
			<path id="XMLID_199_" class="st4" d="M255.1,61.6c-1.8-7.8-10.3-12.2-10.3-12.2s0.8,19.1,2.4,18.5c2.5-0.9,5.7-1,7.6-3.9
				C255.1,63.2,255.3,62.4,255.1,61.6z"/>
		</g>
		<g id="XMLID_643_">
			<path id="XMLID_198_" class="st5" d="M236.9,110.9c0,0-0.1,1.4-1,1.8c-0.9,0.4-3.7,0.7-2.7,1.6c0.6,0.5,3.3,0.3,4.1,0.3
				c0.8,0,1.5,0.4,2.1-0.1c0.6-0.6,0.1-3.5,0.1-3.5s-0.7,0.3-1.3,0.3C237.3,111.2,236.9,110.9,236.9,110.9z"/>
		</g>
		<g id="XMLID_641_">
			<path id="XMLID_197_" class="st6" d="M230.1,74.7c0.2,3,0.5,6.8,1.2,11.6c1.2,9,2.7,18.1,3.4,22.4c0.3,1.6,1.5,2.7,3,2.8l0.8,0.1
				c1.6,0.1,3-1.3,2.9-3L240,79.3l-0.1-4.7C239.9,74.6,229.8,69.9,230.1,74.7z"/>
		</g>
		<g id="XMLID_639_">
			<path id="XMLID_196_" class="st5" d="M245.8,111.1c0,0-0.1,1.4-1,1.8c-0.9,0.4-3.7,0.7-2.7,1.6c0.6,0.5,3.3,0.3,4.1,0.3
				c0.8,0,1.5,0.4,2.1-0.1c0.6-0.6,0.1-3.5,0.1-3.5s-0.7,0.3-1.3,0.3C246.2,111.5,245.8,111.1,245.8,111.1z"/>
		</g>
		<g id="XMLID_637_">
			<path id="XMLID_195_" class="st6" d="M238.8,67.6c0,0-0.4,6.5,1.3,18.9c1.2,9,2.7,18.1,3.4,22.4c0.3,1.6,1.5,2.7,3,2.8l0.8,0.1
				c1.6,0.1,3-1.3,2.9-3l-1.3-29.4l-0.2-9.7L238.8,67.6z"/>
		</g>
		<g id="XMLID_635_">
			<path id="XMLID_194_" class="st1" d="M240.5,47.7l-0.6-1.9l-0.2-0.6l-1.1-3.3l-0.1,3.3l-0.1,2l0,0.6c0,0.4-0.3,0.5-0.6,0.9
				c-0.1,0.1-1,1.1,0,1.5c1.2,0.5,3.5-0.3,4.3-1.3C242.1,48.9,240.7,48.3,240.5,47.7z"/>
		</g>
		<g id="XMLID_633_">
			<path id="XMLID_193_" class="st1" d="M235.8,42.8c0.3-1.9,1.8-3.3,3.5-3.1c1.7,0.2,2.8,2,2.6,3.9c-0.3,1.9-1.8,3.3-3.5,3.1
				C236.7,46.5,235.5,44.7,235.8,42.8z"/>
		</g>
		<g id="XMLID_631_">
			<path id="XMLID_192_" class="st5" d="M237.1,41.9c-1.8,0.1-2.6-0.9-2.6-1.8c0-1.2,0.7-2.2,1.6-1.7c0.9,0.4,0.5-0.6,1.3-0.7
				c1.6-0.2,1.9,0.9,3.2,0.9c1.7,0.1,3.7,2.8,2.2,4.8C242.8,43.3,238.5,41.9,237.1,41.9z"/>
		</g>
		<g id="XMLID_629_">
			<path id="XMLID_191_" class="st5" d="M235.5,40.7c0,0,1.9,1.7,1.6,2.7c-0.2,1-0.2,1.4,0.9,1.9c1.1,0.5,0.1,1.4,1.6,1.4
				c1.5,0.1,3.2-1.6,3.2-4.3c0-1.5-0.9-2.5-0.9-2.5L235.5,40.7z"/>
		</g>
		<g id="XMLID_627_">
			<path id="XMLID_190_" class="st1" d="M236.2,43.4c0.2-0.3,0.6-0.4,0.9-0.2c0.3,0.2,0.3,0.6,0.1,0.9c-0.2,0.3-0.6,0.4-0.9,0.2
				C236.1,44.1,236,43.7,236.2,43.4z"/>
		</g>
		<g id="XMLID_625_">
			<path id="XMLID_189_" class="st5" d="M243.5,44.1C243.5,44.1,243.5,44.1,243.5,44.1c-0.1-0.4-0.5-0.6-0.5-0.6c0,0,0,0,0-0.1
				c0,0,0,0,0.1,0C243.1,43.4,243.5,43.6,243.5,44.1C243.6,44.1,243.6,44.1,243.5,44.1C243.5,44.1,243.5,44.1,243.5,44.1z"/>
		</g>
		<g id="XMLID_623_">
			<path id="XMLID_188_" class="st5" d="M243.1,43.3C243,43.3,243,43.3,243.1,43.3C243,43.2,243,43.2,243.1,43.3
				c0-0.1,0.5-0.1,0.5-0.5c0,0,0,0,0,0c0,0,0,0,0,0c0,0,0,0,0,0.1C243.6,43.2,243.1,43.3,243.1,43.3
				C243.1,43.3,243.1,43.3,243.1,43.3z"/>
		</g>
		<g id="XMLID_621_">
			<path id="XMLID_187_" class="st5" d="M235.8,40.2C235.8,40.2,235.7,40.2,235.8,40.2c-0.2-0.1-0.3-0.1-0.5-0.2
				c-0.2-0.1-0.4-0.2-0.7-0.1c0,0,0,0-0.1,0c0,0,0,0,0-0.1c0.4-0.1,0.6,0,0.8,0.1c0.1,0.1,0.2,0.1,0.3,0.2c0.1,0,0.1,0,0.2,0
				c0.2-0.1,0.2-0.6,0.2-0.6c0,0,0,0,0,0c0,0,0,0,0,0c0,0,0,0,0,0.1c0,0,0,0.5-0.3,0.6C235.9,40.2,235.8,40.2,235.8,40.2z"/>
		</g>
		<g id="XMLID_619_">
			<path id="XMLID_186_" class="st5" d="M239.9,40.3c-0.6,0-1.1-0.4-1.1-0.5c0,0,0,0,0-0.1c0,0,0,0,0.1,0c0,0,0.6,0.5,1.3,0.4
				c0,0,0,0,0,0c0,0,0,0,0,0c0,0,0,0,0,0.1C240,40.3,240,40.3,239.9,40.3z"/>
		</g>
		<g id="XMLID_617_">
			<path id="XMLID_185_" class="st5" d="M236.7,44.4c-0.1,0-0.1,0-0.1,0c0,0,0,0,0,0c0,0,0,0,0,0c0,0,0.4,0.1,0.7-0.4c0,0,0,0,0,0
				c0,0,0,0,0,0C237.1,44.3,236.8,44.4,236.7,44.4z"/>
		</g>
		<g id="XMLID_615_">
			<path id="XMLID_184_" class="st4" d="M247.7,53.1c0,0-1.1-5-8-5c-11.9,0-9.8,18.4-10.5,37.8c0,0,6.3,3.4,21.8,2.1
				c0,0-1.1-21.9-2.5-29.2C248.2,56.8,248.2,54.7,247.7,53.1z"/>
		</g>
		<g id="XMLID_613_">
			<path id="XMLID_183_" class="st4" d="M238.3,48.1c0,0-3.8,0.1-6.7,2.8c-2.8,2.8-6.5,6.6-7.3,8.8c-1,2.7,0.8,5.4,3,5.5
				c2.2,0.1,4.2-1.6,4.2-1.6L238.3,48.1z"/>
		</g>
		<g id="XMLID_611_">
			<path id="XMLID_182_" class="st5" d="M249.5,67.2c-0.5-4.5-1.2-9.1-1.2-9.1l0.1,0C248.4,58.1,249.1,62.7,249.5,67.2L249.5,67.2z"
				/>
		</g>
		<g id="XMLID_609_">
			<path id="XMLID_181_" class="st5" d="M229.7,64.8L229.7,64.8c3.1-1.6,5.2-3.8,5.2-3.9L235,61C235,61,232.9,63.3,229.7,64.8z"/>
		</g>
		<g id="XMLID_607_">
			<path id="XMLID_180_" class="st4" d="M214.7,58c0,1.8,8.6,8.3,13.8,7.2c5.5-1.2-1.3-7.4-1.3-7.4l-10.1-2.4
				C217.1,55.5,214.8,56.2,214.7,58z"/>
		</g>
		<g id="XMLID_605_">
			<path id="XMLID_179_" class="st1" d="M216.5,57.4c0,0,0.1-0.7-0.4-1.1c-0.5-0.5-1.1-2.6-1.4-2.1c-0.3,0.5,0,2.2-0.5,2.4
				C213.7,56.8,216.5,57.4,216.5,57.4z"/>
		</g>
		<g id="XMLID_603_" class="st7">
			<path id="XMLID_178_" class="st8" d="M173.5,27.4c0,0,5.2-5.5,12.6-7c7.4-1.5,8.3,3,4.4,4.8c-3.9,1.8-11.4,8.1-13.9,11.1
				C174.1,39.3,168.1,33.1,173.5,27.4z"/>
		</g>
	</g>
	<text id="XMLID_85_" transform="matrix(1 0 0 1 24.4332 124.2892)" class="st9 st10 st11">S</text>
	<text id="XMLID_86_" transform="matrix(1 0 0 1 113.9916 89.5566)"><tspan x="0" y="0" class="st1 st10 st12">KIN</tspan><tspan x="0" y="25" class="st1 st10 st12">CIENCE</tspan></text>
</g>
</svg>
