<svg width="219" height="206" viewBox="0 0 219 206" fill="none" xmlns="http://www.w3.org/2000/svg">
<path d="M217.284 35.1546C213.245 22.0314 201.835 13.4643 188.047 11.5848C187.895 11.5641 187.751 11.5915 187.6 11.582C187.405 11.5242 187.206 11.4797 187.004 11.4489C168.043 9.07177 147.344 13.3291 130.87 23.3278C115.079 32.912 96.934 38.3198 78.3068 38.1997C77.7283 38.196 77.1476 38.2081 76.5646 38.2362C62.2295 38.93 49.5785 49.0521 45.7031 62.3655C45.1945 64.1123 46.0808 65.673 47.5059 66.6629C50.0101 68.4027 51.7207 69.6221 54.8018 70.2552C60.2994 71.385 65.8159 72.4239 71.3512 73.3718V51.9844C71.3536 49.9596 72.1839 48.0185 73.6598 46.5867C75.1358 45.155 77.137 44.3496 79.2243 44.3473H187.371C189.459 44.3496 191.46 45.155 192.936 46.5867C194.412 48.0185 195.242 49.9596 195.244 51.9844V78.6194C196.728 78.1696 198.176 77.6167 199.577 76.9651C204.794 74.4655 209.251 70.6926 212.511 66.017C218.772 57.2046 220.426 45.361 217.284 35.1546Z" fill="#FAB17E"/>
<path d="M171.75 160.32H76.1467C73.9405 160.318 71.8255 159.467 70.2655 157.953C68.7055 156.44 67.8279 154.388 67.8254 152.248V116.264C56.181 112.806 43.9169 111.764 31.83 113.204C31.6283 113.234 31.4292 113.279 31.2339 113.337C31.0829 113.346 30.939 113.319 30.7873 113.34C16.9995 115.219 5.58906 123.786 1.55019 136.909C-1.59124 147.116 0.062464 158.959 6.32364 167.772C9.58303 172.447 14.0401 176.22 19.2572 178.72C26.4282 182.071 33.976 182.322 41.8028 182.559C65.3023 183.27 88.8245 182.408 112.202 179.978C123.706 178.781 135.163 177.217 146.572 175.285C152.411 174.294 158.232 173.202 164.033 172.01C167.114 171.377 168.824 170.157 171.328 168.418C172.754 167.428 173.64 165.867 173.131 164.12C172.753 162.827 172.292 161.558 171.75 160.32V160.32Z" fill="#FAB17E"/>
<path d="M180.211 149.645H86.3851C84.5742 149.643 82.838 148.944 81.5575 147.702C80.277 146.46 79.5567 144.776 79.5546 143.019V58.4394C79.5567 56.6828 80.277 54.9987 81.5575 53.7566C82.838 52.5144 84.5742 51.8157 86.3851 51.8137H180.211C182.022 51.8157 183.758 52.5144 185.038 53.7566C186.319 54.9987 187.039 56.6828 187.041 58.4394V143.019C187.039 144.776 186.319 146.46 185.038 147.702C183.758 148.944 182.022 149.643 180.211 149.645Z" fill="#FAB17E"/>
<path d="M160.463 145.176H90.9935C89.1826 145.174 87.4464 144.475 86.1659 143.233C84.8854 141.991 84.1651 140.306 84.163 138.55V62.9121C84.1651 61.1555 84.8854 59.4714 86.1659 58.2293C87.4464 56.9871 89.1826 56.2884 90.9935 56.2864H175.603C177.414 56.2884 179.15 56.9871 180.431 58.2293C181.711 59.4714 182.432 61.1555 182.434 62.9121V123.864C182.427 129.514 180.11 134.931 175.992 138.926C171.873 142.922 166.288 145.169 160.463 145.176V145.176Z" fill="white"/>
<path d="M133.298 130.43C150.208 130.43 163.915 117.133 163.915 100.731C163.915 84.3288 150.208 71.0322 133.298 71.0322C116.389 71.0322 102.682 84.3288 102.682 100.731C102.682 117.133 116.389 130.43 133.298 130.43Z" fill="#EE8062"/>
<path d="M146.196 99.2368L135.979 87.185C135.702 86.8581 135.355 86.5935 134.962 86.4096C134.569 86.2256 134.139 86.1267 133.703 86.1197C133.266 86.1127 132.834 86.1978 132.435 86.369C132.036 86.5402 131.68 86.7935 131.391 87.1113L120.465 99.1631C119.939 99.7451 119.672 100.506 119.724 101.278C119.776 102.051 120.141 102.772 120.741 103.283C121.34 103.795 122.124 104.054 122.92 104.005C123.717 103.956 124.461 103.602 124.989 103.021L130.642 96.7859V112.422C130.642 113.196 130.959 113.939 131.524 114.487C132.088 115.035 132.854 115.343 133.653 115.343C134.452 115.343 135.218 115.035 135.782 114.487C136.347 113.939 136.664 113.196 136.664 112.422V97.192L141.544 102.948C142.051 103.546 142.783 103.925 143.578 104C144.373 104.075 145.166 103.841 145.783 103.349C146.4 102.856 146.79 102.147 146.867 101.376C146.945 100.605 146.703 99.8352 146.196 99.2368L146.196 99.2368Z" fill="white"/>
<path d="M128.8 205.599C127.396 205.599 126.023 205.195 124.856 204.438C123.688 203.681 122.778 202.606 122.241 201.347C121.703 200.089 121.563 198.704 121.837 197.368C122.111 196.032 122.787 194.805 123.78 193.842C124.773 192.879 126.038 192.223 127.415 191.957C128.792 191.691 130.22 191.828 131.517 192.349C132.814 192.87 133.923 193.753 134.703 194.886C135.484 196.018 135.9 197.35 135.9 198.712C135.898 200.538 135.149 202.288 133.818 203.579C132.487 204.87 130.682 205.597 128.8 205.599V205.599ZM128.8 192.799C127.594 192.799 126.416 193.145 125.413 193.795C124.411 194.445 123.63 195.368 123.168 196.449C122.707 197.529 122.586 198.718 122.821 199.865C123.057 201.012 123.637 202.066 124.49 202.893C125.342 203.72 126.428 204.283 127.611 204.511C128.793 204.74 130.019 204.622 131.133 204.175C132.247 203.727 133.199 202.969 133.869 201.997C134.539 201.025 134.896 199.881 134.896 198.712C134.894 197.144 134.252 195.641 133.109 194.532C131.966 193.424 130.416 192.8 128.8 192.799V192.799Z" fill="#ABABAB"/>
<path d="M131.58 198.39L129.378 195.792C129.318 195.722 129.243 195.665 129.159 195.625C129.074 195.586 128.981 195.564 128.887 195.563C128.793 195.561 128.7 195.58 128.614 195.617C128.528 195.654 128.451 195.708 128.389 195.777L126.035 198.374C125.922 198.499 125.865 198.663 125.877 198.829C125.888 198.995 125.967 199.15 126.096 199.26C126.225 199.369 126.393 199.425 126.564 199.415C126.735 199.405 126.895 199.33 127.009 199.205L128.228 197.862V201.231C128.228 201.398 128.296 201.558 128.418 201.676C128.539 201.794 128.704 201.861 128.877 201.861C129.049 201.861 129.214 201.794 129.335 201.676C129.457 201.558 129.525 201.398 129.525 201.231V197.949L130.577 199.189C130.686 199.318 130.844 199.4 131.015 199.416C131.187 199.432 131.358 199.382 131.491 199.276C131.623 199.17 131.708 199.017 131.724 198.851C131.741 198.684 131.689 198.519 131.58 198.39H131.58Z" fill="#FAB17E"/>
<path d="M209.608 103.844C208.204 103.844 206.831 103.44 205.664 102.683C204.496 101.927 203.586 100.851 203.049 99.5925C202.512 98.3341 202.371 96.9493 202.645 95.6134C202.919 94.2774 203.595 93.0503 204.588 92.0871C205.581 91.124 206.846 90.4681 208.223 90.2023C209.601 89.9366 211.028 90.073 212.325 90.5942C213.623 91.1155 214.732 91.9982 215.512 93.1308C216.292 94.2633 216.708 95.5948 216.708 96.957C216.706 98.7829 215.957 100.533 214.626 101.824C213.295 103.116 211.491 103.842 209.608 103.844V103.844ZM209.608 91.0437C208.403 91.0437 207.224 91.3905 206.222 92.0403C205.219 92.6901 204.438 93.6136 203.976 94.6941C203.515 95.7746 203.394 96.9635 203.63 98.1106C203.865 99.2576 204.445 100.311 205.298 101.138C206.15 101.965 207.237 102.528 208.419 102.757C209.602 102.985 210.827 102.868 211.941 102.42C213.055 101.973 214.007 101.215 214.677 100.242C215.347 99.2698 215.704 98.1265 215.704 96.957C215.703 95.3892 215.06 93.8862 213.917 92.7776C212.774 91.669 211.225 91.0455 209.608 91.0437V91.0437Z" fill="#ABABAB"/>
<path d="M212.388 96.6348L210.186 94.0376C210.126 93.9672 210.051 93.9102 209.967 93.8705C209.882 93.8309 209.789 93.8096 209.695 93.8081C209.601 93.8066 209.508 93.8249 209.422 93.8618C209.336 93.8987 209.259 93.9533 209.197 94.0218L206.843 96.619C206.73 96.7445 206.673 96.9081 206.685 97.0741C206.696 97.2401 206.775 97.3949 206.904 97.5048C207.033 97.6147 207.201 97.6706 207.372 97.6604C207.543 97.6502 207.703 97.5747 207.817 97.4504L209.036 96.1067V99.4762C209.036 99.6432 209.104 99.8033 209.226 99.9214C209.347 100.039 209.513 100.106 209.685 100.106C209.857 100.106 210.022 100.039 210.144 99.9214C210.265 99.8033 210.334 99.6432 210.334 99.4762V96.1942L211.385 97.4346C211.494 97.5635 211.652 97.6451 211.823 97.6613C211.995 97.6775 212.166 97.627 212.299 97.5209C212.432 97.4149 212.516 97.262 212.532 97.0958C212.549 96.9296 212.497 96.7638 212.388 96.6349L212.388 96.6348Z" fill="#FAB17E"/>
<path d="M49.4978 98.0016C48.0936 98.0016 46.7209 97.5976 45.5533 96.8409C44.3858 96.0842 43.4758 95.0086 42.9384 93.7501C42.401 92.4917 42.2604 91.107 42.5344 89.771C42.8083 88.4351 43.4845 87.208 44.4774 86.2448C45.4704 85.2816 46.7354 84.6257 48.1127 84.36C49.4899 84.0943 50.9174 84.2306 52.2148 84.7519C53.5121 85.2732 54.6209 86.1559 55.4011 87.2884C56.1812 88.421 56.5976 89.7525 56.5976 91.1146C56.5955 92.9405 55.8468 94.691 54.5158 95.9821C53.1847 97.2732 51.3801 97.9995 49.4978 98.0016V98.0016ZM49.4978 85.2014C48.2921 85.2014 47.1135 85.5482 46.111 86.198C45.1085 86.8477 44.3272 87.7712 43.8658 88.8517C43.4044 89.9322 43.2837 91.1212 43.5189 92.2682C43.7541 93.4153 44.3347 94.4689 45.1872 95.2959C46.0398 96.1229 47.126 96.6861 48.3085 96.9142C49.491 97.1424 50.7167 97.0253 51.8306 96.5777C52.9445 96.1302 53.8966 95.3723 54.5664 94.3998C55.2362 93.4274 55.5938 92.2841 55.5938 91.1146C55.592 89.5469 54.9492 88.0438 53.8063 86.9353C52.6635 85.8267 51.114 85.2031 49.4978 85.2014V85.2014Z" fill="#ABABAB"/>
<path d="M52.2772 90.7925L50.0755 88.1953C50.0157 88.1248 49.9409 88.0678 49.8562 88.0282C49.7715 87.9885 49.679 87.9672 49.5849 87.9657C49.4909 87.9642 49.3977 87.9825 49.3117 88.0194C49.2257 88.0563 49.1489 88.1109 49.0868 88.1794L46.7323 90.7766C46.6197 90.9021 46.563 91.0658 46.5744 91.2318C46.5859 91.3978 46.6646 91.5526 46.7934 91.6625C46.9222 91.7723 47.0906 91.8283 47.2618 91.8181C47.4329 91.8079 47.593 91.7324 47.707 91.6081L48.9252 90.2643V93.6339C48.9252 93.8008 48.9936 93.961 49.1153 94.079C49.237 94.1971 49.4021 94.2634 49.5742 94.2634C49.7463 94.2634 49.9114 94.1971 50.0331 94.079C50.1548 93.961 50.2231 93.8008 50.2231 93.6339V90.3518L51.2747 91.5922C51.384 91.7212 51.5417 91.8027 51.713 91.8189C51.8843 91.8351 52.0552 91.7847 52.1882 91.6786C52.3211 91.5726 52.4052 91.4196 52.4219 91.2534C52.4386 91.0873 52.3865 90.9215 52.2772 90.7925L52.2772 90.7925Z" fill="#FAB17E"/>
<path d="M106.214 13.7739C104.81 13.7739 103.437 13.37 102.27 12.6133C101.102 11.8565 100.192 10.7809 99.6547 9.52248C99.1173 8.26405 98.9767 6.87932 99.2507 5.54338C99.5246 4.20744 100.201 2.98031 101.194 2.01715C102.187 1.05399 103.452 0.398071 104.829 0.132336C106.206 -0.133399 107.634 0.00297925 108.931 0.524236C110.228 1.04549 111.337 1.92822 112.117 3.06077C112.898 4.19332 113.314 5.52484 113.314 6.88696C113.312 8.71285 112.563 10.4634 111.232 11.7545C109.901 13.0456 108.096 13.7718 106.214 13.7739ZM106.214 0.973741C105.008 0.97374 103.83 1.32055 102.827 1.9703C101.825 2.62005 101.044 3.54357 100.582 4.62407C100.121 5.70457 100 6.89352 100.235 8.04058C100.47 9.18763 101.051 10.2413 101.904 11.0682C102.756 11.8952 103.842 12.4584 105.025 12.6866C106.207 12.9147 107.433 12.7976 108.547 12.3501C109.661 11.9025 110.613 11.1446 111.283 10.1722C111.953 9.19974 112.31 8.05648 112.31 6.88696C112.308 5.31921 111.665 3.81616 110.523 2.7076C109.38 1.59903 107.83 0.975473 106.214 0.973734V0.973741Z" fill="#ABABAB"/>
<path d="M108.993 6.56488L106.792 3.96769C106.732 3.89724 106.657 3.84022 106.572 3.80058C106.488 3.76094 106.395 3.73963 106.301 3.73812C106.207 3.73661 106.114 3.75494 106.028 3.79183C105.942 3.82873 105.865 3.88331 105.803 3.9518L103.448 6.549C103.336 6.67454 103.279 6.83818 103.291 7.00417C103.302 7.17015 103.381 7.32499 103.51 7.43485C103.638 7.5447 103.807 7.60065 103.978 7.59047C104.149 7.58028 104.309 7.50478 104.423 7.38048L105.641 6.03674V9.40627C105.641 9.57323 105.71 9.73334 105.831 9.8514C105.953 9.96946 106.118 10.0358 106.29 10.0358C106.462 10.0358 106.628 9.96946 106.749 9.8514C106.871 9.73334 106.939 9.57323 106.939 9.40627V6.12425L107.991 7.36462C108.1 7.49358 108.258 7.57512 108.429 7.59132C108.6 7.60752 108.771 7.55704 108.904 7.451C109.037 7.34495 109.121 7.19201 109.138 7.02584C109.155 6.85966 109.103 6.69386 108.993 6.56491L108.993 6.56488Z" fill="#FAB17E"/>
<path d="M30.4252 149.122C29.0209 149.122 27.6482 148.719 26.4806 147.962C25.313 147.205 24.4029 146.129 23.8655 144.871C23.3282 143.613 23.1875 142.228 23.4615 140.892C23.7354 139.556 24.4117 138.329 25.4046 137.365C26.3976 136.402 27.6627 135.746 29.0399 135.481C30.4172 135.215 31.8448 135.351 33.1421 135.873C34.4395 136.394 35.5483 137.277 36.3285 138.409C37.1086 139.542 37.525 140.873 37.525 142.235C37.5228 144.061 36.7741 145.812 35.4431 147.103C34.1121 148.394 32.3075 149.12 30.4252 149.122ZM30.4252 136.322C29.2195 136.322 28.0408 136.669 27.0383 137.319C26.0358 137.968 25.2544 138.892 24.793 139.972C24.3316 141.053 24.2108 142.242 24.446 143.389C24.6812 144.536 25.2618 145.59 26.1143 146.417C26.9669 147.244 28.0531 147.807 29.2356 148.035C30.4181 148.263 31.6439 148.146 32.7578 147.699C33.8717 147.251 34.8238 146.493 35.4937 145.521C36.1636 144.548 36.5211 143.405 36.5211 142.235C36.5194 140.668 35.8765 139.165 34.7337 138.056C33.5909 136.947 32.0414 136.324 30.4252 136.322V136.322Z" fill="white"/>
<path d="M33.2045 141.913L31.0027 139.316C30.943 139.246 30.8682 139.189 30.7835 139.149C30.6988 139.109 30.6062 139.088 30.5122 139.087C30.4182 139.085 30.3249 139.103 30.2389 139.14C30.1529 139.177 30.0762 139.232 30.0141 139.3L27.6595 141.897C27.547 142.023 27.4902 142.187 27.5017 142.353C27.5132 142.519 27.5919 142.673 27.7207 142.783C27.8495 142.893 28.0178 142.949 28.189 142.939C28.3602 142.929 28.5202 142.853 28.6342 142.729L29.8524 141.385V144.755C29.8524 144.922 29.9208 145.082 30.0425 145.2C30.1642 145.318 30.3293 145.384 30.5014 145.384C30.6735 145.384 30.8386 145.318 30.9603 145.2C31.082 145.082 31.1504 144.922 31.1504 144.755V141.473L32.2019 142.713C32.3112 142.842 32.4689 142.924 32.6402 142.94C32.8115 142.956 32.9825 142.906 33.1154 142.799C33.2483 142.693 33.3324 142.54 33.3491 142.374C33.3658 142.208 33.3138 142.042 33.2044 141.913L33.2045 141.913Z" fill="white"/>
<path d="M184.011 33.7354C182.606 33.7354 181.234 33.3315 180.066 32.5748C178.899 31.818 177.989 30.7424 177.451 29.4839C176.914 28.2255 176.773 26.8407 177.047 25.5047C177.321 24.1688 177.997 22.9416 178.99 21.9784C179.983 21.0152 181.248 20.3593 182.625 20.0936C184.003 19.8278 185.43 19.9642 186.728 20.4855C188.025 21.0068 189.134 21.8895 189.914 23.0221C190.694 24.1547 191.111 25.4863 191.111 26.8484C191.108 28.6743 190.36 30.4248 189.029 31.716C187.698 33.0071 185.893 33.7333 184.011 33.7354V33.7354ZM184.011 20.935C182.805 20.9349 181.626 21.2817 180.624 21.9315C179.621 22.5812 178.84 23.5048 178.379 24.5853C177.917 25.6658 177.796 26.8548 178.032 28.0018C178.267 29.1489 178.847 30.2026 179.7 31.0296C180.552 31.8566 181.639 32.4198 182.821 32.648C184.004 32.8762 185.229 32.7591 186.343 32.3116C187.457 31.864 188.409 31.1061 189.079 30.1337C189.749 29.1613 190.107 28.018 190.107 26.8484C190.105 25.2807 189.462 23.7776 188.319 22.669C187.176 21.5604 185.627 20.9368 184.011 20.935V20.935Z" fill="white"/>
<path d="M186.79 26.5263L184.588 23.9291C184.529 23.8587 184.454 23.8016 184.369 23.762C184.284 23.7224 184.192 23.7011 184.098 23.6995C184.004 23.698 183.911 23.7164 183.825 23.7533C183.739 23.7902 183.662 23.8447 183.6 23.9132L181.245 26.5104C181.133 26.636 181.076 26.7996 181.087 26.9656C181.099 27.1316 181.178 27.2864 181.306 27.3963C181.435 27.5061 181.604 27.5621 181.775 27.5519C181.946 27.5417 182.106 27.4662 182.22 27.3419L183.438 25.9982V29.3677C183.438 29.5347 183.506 29.6948 183.628 29.8128C183.75 29.9309 183.915 29.9972 184.087 29.9972C184.259 29.9972 184.424 29.9309 184.546 29.8128C184.668 29.6948 184.736 29.5347 184.736 29.3677V26.0857L185.788 27.326C185.897 27.455 186.055 27.5365 186.226 27.5527C186.397 27.5689 186.568 27.5185 186.701 27.4124C186.834 27.3064 186.918 27.1534 186.935 26.9873C186.951 26.8211 186.899 26.6553 186.79 26.5263L186.79 26.5263Z" fill="white"/>
</svg>
